<svg xmlns="http://www.w3.org/2000/svg" version="1.1" xmlns:xlink="http://www.w3.org/1999/xlink" xmlns:svgjs="http://svgjs.dev/svgjs" width="1920" height="1080" preserveAspectRatio="none" viewBox="0 0 1920 1080">
    <g mask="url(&quot;#SvgjsMask1039&quot;)" fill="none">
        <rect width="1920" height="1080" x="0" y="0" fill="rgba(28, 30, 38, 1)"></rect>
        <path d="M468.28 0C527.83 30.68 503.92 139.09 540 139.09C576.21 139.09 553.01 30.83 612.86 0C688.01 -38.71 711.43 0 810 0C931.76 0 939.94 -15.78 1053.53 0C1074.94 2.97 1066.68 37.5 1080 37.5C1093.41 37.5 1085.43 3 1107 0C1220.43 -15.75 1228.5 0 1350 0C1485 0 1485 0 1620 0C1755 0 1755 0 1890 0C2025 0 2092.5 -67.5 2160 0C2227.5 67.5 2160 135 2160 270C2160 372.08 2200.9 398.49 2160 474.15C2127.92 533.49 2014.05 508.17 2014.05 540C2014.05 571.43 2128.6 542.59 2160 600.67C2201.58 677.59 2160 705.34 2160 810C2160 945 2227.5 1012.5 2160 1080C2092.5 1147.5 2025 1080 1890 1080C1755 1080 1755 1080 1620 1080C1485 1080 1485 1080 1350 1080C1276.88 1080 1236.35 1127.09 1203.75 1080C1142.89 992.09 1126.29 926.82 1163.08 810C1199.42 694.62 1245.49 697.53 1350 615.6C1417.7 562.53 1463.03 606.4 1507.5 540C1578.75 433.6 1623.97 358.27 1581.43 270C1545.22 194.85 1459.87 213.16 1350 213.16C1306.48 213.16 1309.69 238.48 1274.65 270C1174.69 359.9 1176.36 362.02 1080 456C1037.95 497.02 1008.86 486.35 997.83 540C972.46 663.35 1018.81 676.4 1007.19 810C995.33 946.4 1016.13 990.64 950.87 1080C917.54 1125.64 880.43 1080 810 1080C675 1080 675 1080 540 1080C405 1080 405 1080 270 1080C184.89 1080 179.77 1098.13 99.78 1080C44.77 1067.53 17.92 1067.29 0 1018.8C-31.97 932.29 0 914.4 0 810C0 675 0 675 0 540C0 405 0 405 0 270C0 135 -67.5 67.5 0 0C67.5 -67.5 135 0 270 0C369.14 0 392.83 -38.87 468.28 0" stroke="rgba(210, 212, 222, 0.1)" stroke-width="2"></path>
        <path d="M270 450C229.25 470.11 236.52 491.85 229.5 540C210.27 671.85 202.81 680.22 217.5 810C223.06 859.17 241.56 897.91 270 897.91C300.39 897.91 296.69 848.57 335.17 810C431.69 713.23 436.26 717.06 540 627.23C592.16 582.06 646.98 591.08 646.98 540C646.98 470.84 615.89 404.88 540 386.76C427.4 359.88 384.5 393.49 270 450" stroke="rgba(210, 212, 222, 0.1)" stroke-width="2"></path>
        <path d="M270 204.83C170.96 264.79 74.49 276.17 0 219.66C-60.51 173.76 -60.56 49.27 0 0C74.44 -60.56 135 0 270 0C316.4 0 362.81 -29.92 362.81 0C362.81 72.5 352.36 154.96 270 204.83" stroke="rgba(210, 212, 222, 0.1)" stroke-width="2"></path>
        <path d="M691.88 270C678.56 137.65 675.65 101.39 720 0C734.71 -33.61 765 0 810 0C865.59 0 882.35 -32.35 921.18 0C1017.35 80.15 999.01 113.71 1080 225C1097.26 248.71 1117.67 248.55 1117.67 270C1117.67 289.05 1098.3 287.46 1080 306C965.01 422.46 891.04 404.55 851.09 540C816.71 656.55 941.47 678.59 931.35 810C920.93 945.3 873.45 944.22 810 1073.41C807.15 1079.22 805.23 1079.84 798.75 1080C670.23 1083.14 669.38 1080 540 1080C405 1080 405 1080 270 1080C258.26 1080 246.52 1085.1 246.52 1080C246.52 1072.54 259.61 1068.56 270 1054.88C362.12 933.56 354.35 926.57 451.55 810C489.35 764.67 494.55 769.1 540 731.08C655.94 634.1 735.07 659.22 774.34 540C811.01 428.68 705.73 407.65 691.88 270" stroke="rgba(210, 212, 222, 0.1)" stroke-width="2"></path>
        <path d="M1350 94.74C1286.32 64.64 1242 27.04 1242 0C1242 -20.33 1296 0 1350 0C1485 0 1485 0 1620 0C1755 0 1755 0 1890 0C2025 0 2092.5 -67.5 2160 0C2227.5 67.5 2160 135 2160 270C2160 330.91 2201.97 372.24 2160 391.83C2066.97 435.24 1999.42 436.03 1890 396C1832.92 375.12 1878.8 311.7 1827 270C1743.8 203.04 1726.01 217.63 1620 178.68C1487.51 130 1475.32 153.98 1350 94.74" stroke="rgba(210, 212, 222, 0.1)" stroke-width="2"></path>
        <path d="M0 350.27C31.6 350.27 89.02 436.07 117 540C150.9 665.93 159.53 691.11 123.75 810C101.03 885.51 36.56 928.8 0 928.8C-25.32 928.8 0 869.4 0 810C0 675 0 675 0 540C0 445.13 -26.9 350.27 0 350.27" stroke="rgba(210, 212, 222, 0.1)" stroke-width="2"></path>
        <path d="M1249.62 810C1250.56 747.09 1292.86 705.6 1350 705.6C1430.05 705.6 1441.23 752.02 1524 810C1576.23 846.58 1571.02 853.51 1620 894.71C1731.52 988.51 1845 1027.72 1845 1080C1845 1120.36 1732.5 1080 1620 1080C1485 1080 1485 1080 1350 1080C1347.19 1080 1345.35 1082.6 1344.38 1080C1295.16 947.6 1247.75 934.29 1249.62 810" stroke="rgba(210, 212, 222, 0.1)" stroke-width="2"></path>
        <path d="M1974.38 810C1992.25 720.99 2101.4 676.52 2160 676.52C2194.21 676.52 2160 743.26 2160 810C2160 945 2191.15 976.15 2160 1080C2150.65 1111.15 2099.29 1109.51 2079 1080C2006.48 974.51 1951.75 922.73 1974.38 810" stroke="rgba(210, 212, 222, 0.1)" stroke-width="2"></path>
        <path d="M238.85 0C238.85 27.48 85.11 105.25 0 105.25C-34.32 105.25 -36.53 16.1 0 0C82.9 -36.53 238.85 -25.15 238.85 0" stroke="rgba(210, 212, 222, 0.1)" stroke-width="2"></path>
        <path d="M1620 79.41C1508.8 52.38 1404 20.48 1404 0C1404 -19.22 1512 0 1620 0C1755 0 1755 0 1890 0C2025 0 2092.5 -67.5 2160 0C2227.5 67.5 2160 135 2160 270C2160 289.75 2173.81 309.51 2160 309.51C2119.81 309.51 2098.06 302.65 2052 270C1963.06 206.96 1986.93 160.89 1890 118.13C1770.93 65.6 1751.8 111.45 1620 79.41" stroke="rgba(210, 212, 222, 0.1)" stroke-width="2"></path>
        <path d="M0 532.7C1.22 532.7 4.04 535.75 4.5 540C19.04 674.4 31.95 680.46 30 810C29.7 829.86 8.86 838.8 0 838.8C-6.14 838.8 0 824.4 0 810C0 675 0 675 0 540C0 536.35 -1.03 532.7 0 532.7" stroke="rgba(210, 212, 222, 0.1)" stroke-width="2"></path>
        <path d="M617.14 810C617.14 753.14 734.21 687.27 810 687.27C853.4 687.27 855.51 749.51 855.51 810C855.51 860.26 849.83 908.78 810 908.78C730.65 908.78 617.14 863.9 617.14 810" stroke="rgba(210, 212, 222, 0.1)" stroke-width="2"></path>
        <path d="M1336.15 810C1336.15 801.32 1342.12 795.6 1350 795.6C1361.04 795.6 1374 799.9 1374 810C1374 826.39 1359.95 848.57 1350 848.57C1341.02 848.57 1336.15 827.8 1336.15 810" stroke="rgba(210, 212, 222, 0.1)" stroke-width="2"></path>
        <path d="M2079.84 810C2079.84 773.52 2134.69 752.36 2160 752.36C2174.77 752.36 2160 781.18 2160 810C2160 872.56 2178.32 935.12 2160 935.12C2138.24 935.12 2079.84 864.9 2079.84 810" stroke="rgba(210, 212, 222, 0.1)" stroke-width="2"></path>
        <path d="M1540.59 1080C1540.59 1065.55 1581.63 1027.06 1620 1027.06C1653.48 1027.06 1684.29 1065.06 1684.29 1080C1684.29 1091.53 1652.14 1080 1620 1080C1580.3 1080 1540.59 1092.02 1540.59 1080" stroke="rgba(210, 212, 222, 0.1)" stroke-width="2"></path>
    </g>
    <defs>
        <mask id="SvgjsMask1039">
            <rect width="1920" height="1080" fill="#ffffff"></rect>
        </mask>
    </defs>
</svg>