<?xml version="1.0" standalone="no"?>
<!DOCTYPE svg PUBLIC "-//W3C//DTD SVG 20010904//EN"
 "http://www.w3.org/TR/2001/REC-SVG-20010904/DTD/svg10.dtd">
<svg version="1.0" xmlns="http://www.w3.org/2000/svg"
 width="1170.000000pt" height="1227.000000pt" viewBox="0 0 1170.000000 1227.000000"
 preserveAspectRatio="xMidYMid meet">

<g transform="translate(0.000000,1227.000000) scale(0.100000,-0.100000)"
fill="#000000" stroke="none">
<path d="M1 8738 c0 -2716 3 -3526 12 -3503 14 36 42 77 80 118 l28 30 122 -6
c67 -4 140 -11 162 -16 22 -6 94 -15 160 -21 66 -5 239 -21 385 -34 146 -14
314 -29 373 -34 139 -11 137 -9 178 -202 11 -52 24 -115 29 -138 10 -45 1 -79
-26 -95 -7 -4 -15 -25 -19 -47 -5 -32 -2 -48 15 -77 17 -28 20 -46 16 -75 -4
-22 0 -67 9 -105 12 -52 13 -72 4 -98 -10 -27 -9 -40 6 -76 10 -24 19 -62 21
-84 5 -65 16 -109 29 -125 7 -8 21 -43 30 -78 10 -34 22 -65 26 -68 5 -3 9
-15 9 -27 0 -12 7 -35 15 -51 13 -24 15 -53 11 -140 -4 -80 -2 -123 8 -156 15
-46 32 -153 28 -180 -3 -28 19 -80 39 -90 16 -9 19 -23 21 -93 l1 -82 8 100
c14 192 10 1444 -6 1655 -2 25 -7 108 -11 186 -8 160 -2 184 46 184 l30 0 0
-87 c0 -49 3 -137 5 -198 3 -60 10 -263 15 -450 11 -348 12 -360 53 -479 l24
-69 14 34 c11 27 15 157 19 656 3 342 8 625 13 629 15 15 49 10 63 -10 8 -11
14 -42 14 -68 0 -62 18 -144 41 -190 11 -21 19 -50 19 -65 0 -15 12 -59 26
-98 19 -53 27 -97 31 -184 5 -92 9 -117 24 -132 10 -10 21 -31 25 -46 3 -16
13 -48 21 -73 14 -41 14 -50 -1 -93 -17 -51 -20 -154 -10 -292 6 -79 7 -81 33
-80 17 0 27 6 29 19 3 11 15 36 28 56 20 30 30 36 49 32 14 -2 25 -7 25 -11 0
-3 5 -46 11 -96 13 -108 20 -719 10 -749 -7 -16 -23 -23 -82 -34 -41 -7 -102
-15 -137 -19 -60 -5 -65 -8 -94 -47 -16 -22 -35 -54 -42 -71 -18 -42 -40 -58
-94 -66 -26 -4 -65 -11 -88 -14 -50 -9 -69 7 -78 67 -11 70 -13 71 -97 44 -41
-13 -100 -29 -131 -36 -49 -10 -63 -18 -98 -58 -34 -37 -47 -46 -73 -45 -38 1
-138 49 -200 97 -47 36 -155 96 -172 96 -6 0 -27 9 -48 20 -21 12 -89 32 -152
45 -163 34 -175 42 -303 195 -175 210 -276 320 -372 406 -19 17 -48 45 -65 63
l-30 32 -5 184 c-5 186 -11 212 -43 199 -16 -6 -17 -159 -17 -2165 l0 -2159
1970 0 c1484 0 1970 3 1970 12 0 6 11 26 24 43 14 18 34 58 45 90 11 32 22 60
24 62 10 9 78 5 91 -6 27 -23 57 56 67 178 5 58 11 113 14 121 2 8 9 69 16
135 6 69 19 143 31 175 11 30 29 82 39 115 11 33 33 87 49 120 16 33 32 74 36
90 4 17 15 42 25 57 11 14 19 30 19 34 0 4 19 39 43 78 24 39 54 92 68 119 13
26 29 47 36 47 6 0 15 9 18 20 11 36 25 21 24 -27 0 -27 -4 -149 -8 -273 -4
-124 -5 -247 -2 -275 l7 -50 16 86 c9 48 26 102 37 120 12 19 21 39 21 46 0 6
21 56 46 110 50 106 63 137 71 168 26 109 0 423 -53 625 -19 74 -43 174 -53
223 -11 48 -24 93 -30 101 -6 7 -15 75 -21 152 -5 76 -15 162 -21 189 -17 77
-23 205 -10 205 6 0 11 -11 11 -25 0 -14 5 -25 10 -25 6 0 10 -9 10 -21 0 -11
4 -18 10 -14 5 3 14 -11 19 -32 14 -52 157 -262 206 -303 8 -7 15 -17 15 -22
0 -6 12 -25 28 -43 15 -18 40 -55 57 -82 30 -49 54 -80 90 -118 11 -12 36 -41
54 -66 48 -62 169 -177 195 -185 11 -3 30 -15 41 -25 11 -10 45 -22 75 -28 30
-5 82 -19 114 -30 33 -12 65 -21 73 -21 22 0 123 -70 123 -85 0 -5 8 -17 17
-27 16 -17 16 -20 0 -36 -17 -16 -21 -15 -70 11 -41 23 -62 28 -102 25 -50 -3
-50 -3 -53 -40 -3 -33 -7 -38 -27 -38 -33 0 -99 48 -120 86 -14 26 -15 36 -5
54 14 26 0 47 -47 67 -18 7 -33 17 -33 22 0 20 -104 34 -159 22 -127 -27 -197
-82 -221 -172 -17 -63 -6 -182 24 -244 13 -27 29 -66 37 -85 7 -19 19 -39 26
-43 7 -4 13 -14 13 -22 0 -7 6 -20 14 -28 34 -33 119 -156 138 -197 39 -86 42
-331 4 -352 -17 -10 -22 -68 -6 -68 6 0 10 7 10 16 0 8 4 13 9 9 18 -11 39 25
46 80 4 39 12 59 26 68 14 9 19 23 19 57 0 47 21 90 44 90 7 0 22 -11 34 -25
12 -14 26 -25 30 -25 5 0 14 -12 20 -26 7 -14 17 -22 22 -19 14 9 12 41 -3 54
-25 20 -42 88 -29 116 6 14 16 25 22 25 11 0 180 -166 180 -176 0 -4 8 -14 18
-23 10 -9 32 -38 50 -65 31 -49 32 -53 27 -134 -5 -85 -11 -101 -71 -175 -30
-36 -110 -202 -119 -247 -4 -19 -20 -73 -35 -120 -15 -47 -30 -106 -34 -133
l-6 -47 505 0 505 0 0 43 c0 24 -7 66 -15 93 -8 27 -15 81 -15 121 0 39 -7
100 -16 135 -30 115 -6 224 70 324 20 26 36 56 36 67 0 32 92 177 116 183 12
3 24 14 27 24 4 14 12 18 33 16 16 -2 29 -9 29 -16 0 -31 54 -37 95 -10 13 8
13 13 -2 41 -12 20 -18 52 -18 94 0 41 -7 78 -20 106 -11 24 -20 53 -20 63 0
20 -12 48 -76 182 -19 39 -34 74 -34 79 0 4 -11 22 -24 40 -13 17 -31 47 -40
66 -20 42 -54 96 -83 133 -13 16 -23 32 -23 37 0 4 -10 23 -23 41 -59 86 -94
126 -122 137 -28 10 -32 8 -72 -36 -24 -25 -43 -52 -43 -60 0 -17 -69 -93 -84
-93 -6 0 -35 -16 -64 -35 -29 -19 -70 -39 -90 -44 -41 -10 -127 0 -144 17 -27
27 34 122 79 122 14 0 36 9 50 20 14 11 32 20 39 20 8 0 14 4 14 8 0 19 112
91 153 97 54 9 92 29 135 71 19 19 41 34 49 34 7 0 13 4 13 9 0 11 175 191
186 191 13 0 144 127 144 139 0 5 9 13 20 16 11 3 20 11 20 17 0 6 34 44 76
84 l76 74 -5 50 c-3 28 -1 50 4 50 5 0 9 7 9 15 0 8 5 15 11 15 5 0 7 5 4 10
-3 6 1 13 10 16 9 4 13 13 11 23 -3 9 -7 31 -8 49 -2 22 -7 31 -15 28 -8 -3
-13 3 -13 15 0 16 4 19 20 14 17 -5 21 -1 26 24 4 17 10 31 15 31 5 0 9 9 9
20 0 11 -4 20 -10 20 -5 0 -10 9 -10 20 0 11 5 20 11 20 21 0 38 34 39 77 0
32 5 45 20 53 12 7 20 21 20 38 0 15 7 39 14 54 8 16 18 48 22 73 3 25 10 48
15 51 5 3 9 12 9 21 0 9 8 35 18 57 10 23 27 66 37 96 10 30 22 59 26 65 5 5
9 18 9 30 0 11 7 29 15 39 8 11 15 30 15 43 0 13 3 23 8 23 16 0 76 215 86
310 8 78 15 92 49 95 22 3 27 -3 45 -53 15 -42 19 -72 15 -113 -4 -40 -1 -63
10 -80 8 -13 17 -51 20 -84 3 -33 15 -87 27 -120 17 -46 23 -91 27 -198 5
-112 9 -140 21 -145 9 -3 20 2 26 13 6 10 21 29 32 44 12 14 34 58 49 96 40
100 41 199 1 315 -16 47 -33 90 -37 96 -11 14 -1 24 24 24 30 0 84 -67 133
-165 24 -49 57 -109 72 -131 15 -23 40 -61 56 -85 55 -82 86 -154 113 -264 27
-105 28 -121 27 -345 0 -132 -5 -261 -12 -295 -6 -33 -16 -118 -22 -190 -11
-129 -58 -332 -84 -365 -7 -8 -27 -45 -45 -82 -19 -37 -47 -82 -62 -100 -16
-17 -29 -37 -29 -43 0 -7 -9 -20 -19 -29 -11 -10 -17 -25 -14 -33 8 -19 54
-11 93 17 16 12 35 17 45 14 15 -6 16 -21 10 -143 -7 -146 -11 -180 -44 -366
-48 -276 -61 -353 -66 -405 -3 -30 -14 -98 -25 -150 -20 -102 -53 -312 -70
-450 -6 -47 -16 -103 -22 -125 -11 -43 -38 -209 -38 -237 0 -17 104 -18 2050
-18 l2050 0 0 213 c-1 165 -4 218 -15 237 -19 33 -19 98 0 134 12 23 15 74 15
257 0 126 -2 229 -4 229 -2 0 -26 -21 -53 -48 -52 -49 -55 -51 -112 -58 -19
-2 -38 -10 -42 -16 -34 -54 2 137 51 277 17 50 50 135 73 190 39 96 41 104 41
213 l1 112 -32 30 c-34 32 -44 37 -40 18 1 -6 -19 -23 -45 -37 -26 -14 -53
-33 -60 -42 -7 -9 -27 -22 -45 -28 -37 -15 -43 -40 -41 -161 1 -82 -7 -106
-56 -154 -17 -18 -42 -47 -56 -64 -14 -18 -40 -49 -58 -70 -18 -20 -47 -56
-63 -79 -17 -24 -34 -43 -38 -43 -5 0 -6 -10 -4 -23 4 -19 -4 -26 -55 -49 -54
-24 -60 -30 -76 -74 -10 -27 -19 -65 -22 -85 -3 -33 -1 -36 37 -53 l42 -19 -5
-68 c-4 -45 -13 -80 -27 -105 -33 -56 -23 -68 51 -60 34 4 70 12 79 17 42 22
69 -30 40 -74 -9 -14 -44 -52 -78 -86 -58 -56 -66 -61 -107 -61 -37 0 -48 5
-70 31 -14 17 -26 36 -26 43 0 11 -36 46 -92 88 -9 7 -28 35 -42 62 -23 44
-26 60 -26 161 0 100 2 115 22 140 11 15 49 82 82 149 34 66 70 133 80 148 10
15 22 59 27 99 5 39 13 77 18 83 5 6 17 40 26 76 9 36 22 72 29 80 7 8 18 35
25 60 7 25 22 60 34 79 24 41 27 107 7 199 -10 47 -11 95 -5 190 11 157 9 261
-5 277 -5 6 -7 15 -4 18 11 11 -44 30 -68 24 -14 -4 -54 -28 -89 -54 -36 -27
-81 -57 -100 -67 -19 -11 -36 -23 -39 -27 -12 -17 -130 -69 -158 -69 -50 0
-55 -46 -17 -151 13 -37 41 -89 61 -116 20 -26 43 -64 51 -83 8 -19 21 -42 28
-50 20 -23 65 -154 72 -209 12 -100 1 -128 -90 -223 -89 -94 -102 -103 -180
-123 -71 -18 -96 -11 -154 43 -57 54 -93 109 -98 152 -4 31 17 94 35 105 12 8
13 57 1 70 -14 16 -23 107 -10 99 6 -4 15 0 20 7 13 20 11 29 -6 29 -8 0 -15
7 -15 15 0 8 -16 19 -40 25 -27 7 -40 16 -40 28 0 15 -2 15 -10 2 -5 -8 -10
-28 -10 -45 l0 -30 -21 39 c-16 31 -18 40 -7 47 10 7 10 16 -2 50 -14 39 -19
44 -63 55 -56 14 -95 43 -75 55 10 7 10 11 0 21 -6 6 -12 20 -12 29 0 20 -14
47 -55 108 -45 66 -55 84 -55 103 0 9 -5 20 -10 23 -6 4 -24 32 -40 63 -16 31
-45 75 -65 97 -36 39 -36 41 -32 110 4 69 51 291 67 310 4 6 13 35 20 65 7 30
26 83 41 118 16 34 29 67 29 72 0 5 14 31 30 57 36 57 37 65 5 97 -26 26 -31
51 -16 75 15 23 -6 49 -44 57 -20 3 -35 12 -35 20 0 19 -83 104 -102 104 -8 0
-22 8 -32 19 -21 23 -11 52 37 104 19 20 38 44 41 52 3 9 17 20 31 25 14 5 25
16 25 25 0 8 5 15 12 15 6 0 33 14 60 31 48 31 49 31 162 28 72 -3 119 -9 128
-17 9 -7 44 -21 79 -32 108 -32 162 -51 214 -76 28 -13 55 -24 61 -24 6 0 21
-9 34 -20 23 -20 69 -36 142 -50 31 -6 38 -4 46 14 6 12 13 176 16 401 3 209
12 463 20 565 8 102 17 300 21 440 10 370 21 665 30 760 3 30 15 195 26 365
19 283 34 441 38 390 1 -11 6 -58 11 -105 25 -215 21 -613 -11 -1245 -22 -433
-29 -587 -39 -830 -5 -137 -16 -365 -24 -505 -8 -140 -15 -267 -16 -281 0 -34
48 -82 100 -99 47 -16 70 -8 69 22 0 13 2 97 6 188 3 91 5 289 4 440 -2 390
-3 375 16 404 15 22 17 49 16 167 0 90 3 138 9 134 7 -4 10 107 11 322 1 447
3 502 23 542 20 38 37 189 32 276 -2 33 -4 82 -5 109 -1 38 -4 47 -16 42 -10
-4 -15 1 -15 14 0 11 5 20 10 20 6 0 10 7 10 15 0 8 -4 15 -9 15 -5 0 -12 41
-16 90 -7 86 -6 93 20 145 27 52 28 59 20 137 -15 147 -9 268 14 276 6 2 11
11 11 20 0 13 2 14 9 4 12 -19 20 52 31 263 5 99 14 196 20 215 5 19 11 51 11
70 2 39 14 -48 29 -210 20 -216 7 -1162 -26 -1870 -2 -53 0 -77 5 -65 8 19 10
18 21 -10 l13 -30 9 35 c4 19 12 184 17 365 5 206 12 341 20 358 13 33 15 155
2 189 -8 23 -4 89 23 378 8 85 17 263 20 395 10 478 50 923 99 1095 l24 85 8
-90 c8 -96 1 -471 -14 -747 -5 -92 -12 -391 -16 -665 -3 -274 -10 -588 -16
-698 -5 -110 -16 -378 -25 -595 -9 -217 -18 -422 -20 -455 -17 -276 -27 -454
-29 -530 -2 -49 -9 -216 -14 -370 -6 -154 -13 -380 -15 -501 l-4 -221 50 -24
c49 -23 50 -23 64 -4 26 36 32 88 43 430 6 187 18 405 26 485 19 202 34 503
41 850 3 162 10 336 15 385 5 50 15 281 24 515 8 234 19 461 25 505 9 63 23
703 19 850 -4 154 -3 288 4 292 4 2 7 448 7 990 0 543 -2 984 -5 981 -3 -3
-12 -59 -20 -124 -7 -66 -17 -127 -20 -136 -4 -9 -23 -24 -42 -34 -35 -16 -37
-16 -50 2 -29 39 -1 414 38 507 11 26 18 57 17 70 -2 12 2 23 7 24 6 2 10 -10
10 -25 0 -28 43 -112 57 -112 4 0 8 594 8 1320 l0 1320 -439 0 -439 0 15 -32
c9 -18 21 -40 28 -48 30 -36 55 -137 55 -221 0 -46 5 -100 10 -119 11 -38 3
-189 -11 -212 -7 -11 -11 -10 -20 2 -7 10 -8 73 -3 195 4 99 7 191 7 204 -1
33 -16 44 -39 27 -17 -13 -19 -29 -21 -198 0 -101 4 -223 10 -271 12 -98 6
-122 -34 -122 -27 0 -51 38 -101 160 -45 112 -44 189 5 278 34 62 38 80 62
305 l6 52 -317 0 -316 0 5 -42 c18 -139 19 -161 7 -203 -13 -47 -32 -62 -50
-40 -6 7 -22 16 -35 19 -29 7 -32 28 -10 80 9 20 13 47 9 61 -7 27 12 95 27
95 5 0 9 7 9 15 0 13 -233 15 -2040 15 l-2040 0 -1 -67 c-1 -53 -3 -61 -9 -38
-4 17 -8 47 -9 68 l-1 37 -60 0 c-48 0 -60 -3 -60 -16 0 -8 5 -12 10 -9 6 4
10 -16 10 -52 0 -41 -3 -54 -10 -43 -7 10 -10 -9 -10 -62 0 -45 -4 -78 -10
-78 -6 0 -10 50 -10 130 l0 130 -115 0 -115 0 0 -40 c0 -30 4 -40 16 -40 15 0
16 -20 10 -212 -3 -117 -9 -242 -12 -277 -5 -46 -3 -62 5 -57 14 9 15 -26 12
-352 -2 -140 -7 -268 -12 -285 -11 -39 -11 -147 0 -205 5 -24 5 -60 0 -80 -8
-40 -9 -84 -9 -477 -1 -143 -5 -285 -11 -315 -12 -63 -62 -131 -82 -111 -27
27 1 1493 29 1571 3 8 8 152 10 320 3 168 9 355 14 417 6 61 7 118 4 127 -5
14 -32 16 -204 16 l-199 0 6 -54 c7 -67 -7 -589 -16 -581 -10 10 -13 254 -7
523 l2 112 -400 0 -401 0 0 -382 c0 -842 -21 -2152 -36 -2218 -6 -25 -21 -56
-34 -70 -12 -14 -26 -35 -30 -47 -3 -13 -12 -23 -19 -23 -20 0 -76 -103 -76
-141 0 -42 -21 -75 -43 -66 -9 3 -26 -2 -39 -12 -32 -25 -89 -53 -95 -47 -3 3
-9 36 -13 74 -4 39 -10 74 -13 79 -3 4 -2 42 3 83 5 41 10 269 11 505 1 237 6
493 11 570 8 121 11 470 5 603 -1 24 3 46 8 50 32 23 35 39 15 80 -24 50 -25
68 -4 80 17 10 17 7 -7 161 -6 40 -7 76 -3 80 5 3 15 21 21 40 11 29 10 36 -4
46 -24 18 -27 100 -8 195 19 94 21 113 26 215 2 52 3 59 6 28 2 -24 8 -43 13
-43 5 0 11 -26 15 -57 4 -32 13 -106 22 -165 14 -103 14 -110 -5 -162 -17 -48
-18 -64 -9 -156 6 -66 7 -109 0 -119 -5 -9 -9 -56 -8 -105 2 -78 5 -91 23
-107 26 -21 28 -60 6 -94 -10 -16 -14 -34 -10 -51 5 -20 12 -25 33 -22 24 3
28 -1 35 -32 9 -38 1 -130 -11 -130 -8 0 -31 89 -31 121 0 24 -27 25 -34 2
-15 -56 -17 -162 -2 -196 15 -37 36 -50 36 -22 0 8 9 15 19 15 27 0 31 -28 32
-205 0 -82 1 -166 2 -185 0 -19 0 -138 -1 -263 l-2 -229 -27 2 c-67 5 -80 0
-93 -29 -6 -16 -10 -41 -8 -55 l3 -27 29 23 c15 13 37 31 49 41 26 22 36 22
46 -5 9 -25 -7 -99 -23 -110 -14 -9 10 -100 30 -111 21 -12 -1 -47 -28 -47
-35 0 -3 -25 33 -26 23 0 29 4 26 16 -2 8 0 47 5 85 5 39 10 284 13 545 2 261
9 556 16 655 11 172 13 217 18 435 1 52 6 145 12 205 5 61 11 248 12 418 l2
307 -315 0 -315 0 -1 -722 c-1 -398 -2 -750 -2 -783 -1 -33 0 -78 0 -100 1
-22 1 -74 1 -115 -1 -41 -2 -406 -3 -810 l-1 -735 -27 -57 c-17 -37 -32 -57
-42 -55 -13 2 -15 72 -15 562 0 528 -8 735 -26 735 -4 0 -10 -12 -13 -27 -9
-43 -25 -505 -31 -860 -4 -272 -2 -332 11 -384 18 -70 10 -123 -30 -193 -13
-23 -27 -54 -30 -71 -4 -16 -17 -37 -28 -46 -14 -11 -23 -31 -25 -58 -2 -24
-18 -63 -36 -92 l-32 -52 -8 39 c-5 26 -3 61 7 104 8 36 15 93 15 128 1 60 14
92 39 92 11 0 19 212 28 695 3 193 9 405 14 472 4 67 5 133 3 146 -5 26 -42
44 -47 24 -14 -53 -24 -72 -39 -75 -11 -2 -17 3 -17 15 0 28 -27 97 -39 101
-17 6 -43 -68 -53 -158 -13 -110 -16 -213 -21 -1000 -3 -447 -8 -664 -15 -682
-7 -17 -26 -34 -51 -45 -26 -11 -45 -28 -55 -50 -9 -18 -21 -33 -26 -33 -6 0
-8 4 -5 10 3 5 0 7 -9 4 -17 -7 -23 -31 -31 -134 -8 -102 -25 -199 -37 -206
-14 -9 -58 17 -58 33 0 8 -6 21 -14 29 -8 7 -16 19 -19 26 -2 7 -8 9 -13 5
-14 -13 -12 -185 2 -262 19 -96 18 -118 -10 -173 -13 -26 -27 -74 -31 -107 -4
-33 -11 -70 -16 -83 -5 -12 -13 -62 -19 -111 -10 -76 -9 -97 6 -147 18 -62 19
-81 14 -235 -3 -89 0 -105 30 -188 18 -50 43 -102 55 -115 13 -14 26 -44 30
-68 27 -165 70 -247 205 -390 62 -66 89 -88 109 -88 14 -1 46 -11 71 -23 39
-19 45 -27 48 -56 4 -43 -9 -51 -68 -44 -69 8 -90 -7 -90 -63 0 -24 -6 -59
-14 -78 -11 -26 -14 -141 -15 -576 -1 -299 -4 -547 -6 -551 -3 -4 -5 -272 -5
-596 l0 -590 -23 -21 c-19 -18 -40 -23 -118 -28 -51 -3 -119 -5 -149 -5 -45 2
-60 -2 -75 -18 -10 -12 -26 -21 -36 -21 -45 0 -45 -11 -37 990 11 1294 10
2985 -3 3815 -14 867 -16 1276 -19 2873 l-1 1282 -1375 0 -1374 0 1 -3532z
m5376 3195 c-2 -21 -4 -6 -4 32 0 39 2 55 4 38 2 -18 2 -50 0 -70z m4431 35
c17 -19 29 -49 33 -77 4 -25 10 -70 14 -99 5 -34 3 -78 -5 -122 -10 -55 -18
-72 -41 -89 l-29 -21 -5 22 c-2 13 -9 66 -15 118 -11 111 -23 152 -57 197 -28
38 -23 75 10 91 40 19 67 13 95 -20z m-5194 -74 c8 -20 -2 -54 -15 -54 -5 0
-9 16 -9 35 0 37 13 47 24 19z m1289 -189 c6 -214 28 -308 61 -262 11 13 15
14 23 5 18 -25 34 -99 27 -133 -3 -18 -1 -71 5 -117 8 -59 8 -112 1 -183 -6
-55 -12 -300 -14 -545 -3 -267 -8 -455 -14 -471 -10 -26 -31 -30 -95 -20 -5 0
-8 16 -6 34 4 67 2 71 -28 47 l-28 -21 -8 28 c-7 25 -5 154 8 552 3 75 9 127
16 131 6 4 10 38 9 86 -1 43 0 169 3 279 3 110 9 328 12 483 4 156 11 280 16
275 4 -4 10 -80 12 -168z m-526 143 c-3 -8 -6 -5 -6 6 -1 11 2 17 5 13 3 -3 4
-12 1 -19z m4123 -65 c0 -18 -6 -48 -13 -66 -12 -27 -19 -32 -48 -31 -18 0
-47 -7 -64 -18 -33 -20 -65 -24 -65 -8 0 6 11 16 25 22 14 6 25 16 25 21 0 6
20 28 43 51 24 23 49 51 56 64 17 32 41 12 41 -35z m920 -28 c0 -11 9 -65 19
-120 42 -221 34 -515 -18 -714 -15 -56 -16 -80 -8 -120 7 -37 6 -59 -3 -81
-13 -33 -21 -35 -51 -20 -25 14 -27 100 -3 125 15 15 16 19 2 49 -14 28 -14
68 -2 371 12 289 28 567 34 585 3 10 29 -56 30 -75z m-5805 -48 c11 -147 0
-336 -19 -316 -2 2 -9 69 -15 149 -7 80 -15 168 -18 197 -5 52 -4 54 39 62 3
0 9 -41 13 -92z m1412 21 c-2 -13 -4 -3 -4 22 0 25 2 35 4 23 2 -13 2 -33 0
-45z m-27 -68 c0 -27 -2 -50 -5 -50 -11 0 -26 55 -20 77 10 41 25 24 25 -27z
m-777 -113 c-4 -7 -4 -417 1 -562 0 -16 -3 -111 -8 -210 -7 -168 -13 -375 -21
-695 -4 -145 -11 -250 -19 -257 -9 -9 -22 6 -46 54 -19 38 -24 63 -24 118 2
137 14 391 24 489 6 54 10 180 10 280 0 99 5 237 11 306 5 69 13 173 17 233 5
59 14 113 20 119 16 16 15 48 -2 48 -21 0 -25 76 -7 103 31 45 36 46 43 14 3
-17 4 -35 1 -40z m166 -88 c1 -161 -11 -388 -20 -359 -9 33 -11 194 -2 365 7
158 21 154 22 -6z m2261 99 c0 -5 -4 -8 -10 -8 -5 0 -10 10 -10 23 0 18 2 19
10 7 5 -8 10 -18 10 -22z m-1617 -29 c-4 -16 -8 -17 -14 -7 -13 19 -11 28 5
28 9 0 12 -7 9 -21z m3077 -24 c0 -8 5 -15 10 -15 13 0 13 -104 1 -147 -5 -18
-6 -33 -3 -35 4 -2 20 -20 35 -41 20 -26 36 -70 52 -135 23 -100 69 -237 84
-256 5 -6 13 -31 18 -56 6 -31 15 -48 29 -54 12 -5 27 -25 34 -44 l12 -35 17
22 17 22 11 -23 c5 -13 8 -65 6 -118 -3 -70 1 -104 12 -134 10 -23 18 -82 21
-140 2 -56 9 -120 15 -143 14 -52 6 -96 -21 -123 -11 -11 -20 -16 -20 -10 0 5
-5 9 -10 7 -22 -5 -80 119 -90 195 -5 33 -18 83 -29 111 -11 29 -31 90 -44
137 -58 201 -87 309 -87 325 0 23 -41 115 -51 115 -5 0 -9 11 -9 24 0 14 -4
27 -8 30 -5 3 -9 24 -10 46 -1 23 -6 50 -12 60 -5 10 -10 33 -10 49 0 17 -4
39 -9 49 -94 186 -100 226 -45 290 37 43 84 58 84 27z m-3124 -32 c-10 -10
-19 5 -10 18 6 11 8 11 12 0 2 -7 1 -15 -2 -18z m548 6 c12 -15 17 -33 14 -59
-2 -21 0 -36 4 -34 5 3 8 -18 8 -45 0 -33 -4 -50 -11 -48 -7 1 -16 -13 -21
-30 -5 -18 -15 -33 -23 -33 -12 0 -15 16 -17 73 -2 116 6 197 20 197 4 0 16
-10 26 -21z m4220 -40 c36 -17 50 -67 43 -165 -4 -67 -1 -90 14 -124 26 -59
27 -275 1 -289 -13 -8 -17 -24 -17 -77 0 -45 4 -69 13 -71 14 -5 17 -43 3 -43
-5 0 -11 -10 -14 -22 -3 -13 -12 -42 -21 -65 -13 -35 -13 -45 -2 -70 17 -34
31 -251 29 -423 -1 -69 1 -117 3 -108 3 9 16 23 29 32 21 14 24 14 30 -2 3 -9
10 -93 14 -187 11 -241 4 -301 -39 -345 -35 -36 -37 -58 -10 -90 20 -23 24
-62 25 -300 0 -124 -28 -370 -44 -370 -3 0 -15 18 -25 40 -21 44 -26 44 -42
-3 -8 -25 -19 -34 -48 -41 -70 -18 -71 -13 -69 194 2 157 6 195 28 284 l26
102 -22 104 c-28 138 -30 280 -5 379 16 61 18 95 13 196 -3 67 -11 149 -18
181 -9 44 -9 138 -2 379 l9 320 34 65 c29 57 33 75 34 148 1 61 -3 85 -13 91
-16 10 -41 180 -33 232 8 58 27 70 76 48z m478 -35 c4 -21 7 -74 7 -117 1 -76
2 -78 31 -95 17 -9 33 -26 36 -36 12 -35 5 -114 -13 -155 -16 -38 -18 -39 -35
-24 -10 9 -18 22 -18 30 0 7 -19 34 -41 58 l-41 45 -1 156 c-1 138 1 158 17
169 30 22 50 11 58 -31z m-4973 -285 c1 -162 -5 -223 -20 -213 -11 6 -11 358
-1 419 l6 40 7 -45 c4 -25 8 -115 8 -201z m851 156 c-7 -45 -7 -46 -9 -13 -1
32 8 74 14 66 1 -2 -1 -25 -5 -53z m3032 23 c-9 -9 -12 -7 -12 12 0 19 3 21
12 12 9 -9 9 -15 0 -24z m-5527 -223 c1 -77 4 -378 6 -670 l4 -530 -27 -36
c-16 -20 -28 -41 -28 -46 0 -17 -26 -34 -43 -27 -12 4 -15 16 -11 52 3 26 1
109 -4 185 -9 116 -8 148 5 195 19 73 32 333 33 687 0 154 3 290 6 303 4 12
13 22 20 22 10 0 14 15 15 53 l2 52 9 -50 c5 -27 11 -113 13 -190z m295 175
c0 -11 -7 -20 -15 -20 -18 0 -19 12 -3 28 16 16 18 15 18 -8z m-16 -100 c16 0
28 -73 19 -124 -4 -26 -10 -35 -19 -32 -10 4 -14 -3 -14 -25 0 -17 4 -28 9
-25 16 10 20 -23 22 -167 1 -142 -5 -197 -22 -197 -12 0 -11 -58 1 -62 21 -7
31 -162 23 -348 -4 -102 -6 -202 -5 -224 3 -28 -2 -43 -17 -57 -28 -26 -43
-24 -75 10 -22 23 -27 36 -22 55 19 75 64 923 56 1044 -5 60 4 170 16 202 8
24 9 23 12 -12 2 -23 8 -38 16 -38z m1628 27 c3 -13 2 -32 -2 -42 -7 -20 18
-106 34 -117 7 -4 11 -72 13 -180 1 -95 5 -303 10 -463 9 -346 6 -534 -8 -551
-16 -20 -39 -5 -56 37 -15 39 -33 52 -33 24 0 -8 -9 -15 -20 -15 -11 0 -20 7
-20 15 0 9 -8 19 -17 22 -10 4 -21 11 -25 17 -10 15 2 69 19 83 17 13 10 48
-12 57 -18 7 -21 106 -4 106 6 0 9 6 6 13 -2 6 0 22 4 34 11 29 1 62 -12 41
-11 -16 -12 25 -3 111 4 37 12 61 19 61 6 0 16 21 22 47 10 42 9 52 -13 95
-27 54 -31 113 -9 154 12 22 15 59 14 152 -1 103 2 129 17 158 10 19 22 34 26
34 5 0 8 15 8 34 0 38 18 96 30 96 4 0 10 -10 12 -23z m555 -160 c13 -559 8
-1025 -12 -1045 -15 -15 -28 58 -29 158 -1 263 23 995 33 984 3 -3 7 -47 8
-97z m1488 55 c25 -18 53 -72 64 -122 7 -30 21 -77 31 -105 11 -27 24 -70 30
-95 7 -25 15 -49 19 -55 11 -15 31 -89 31 -114 0 -12 7 -38 17 -59 9 -20 26
-68 38 -107 24 -73 60 -175 75 -210 5 -11 16 -51 25 -90 10 -38 23 -81 30 -95
7 -14 18 -52 25 -85 7 -33 19 -67 25 -75 21 -26 75 -242 75 -300 1 -86 17
-140 53 -175 34 -33 54 -90 82 -235 17 -90 56 -238 90 -340 14 -41 29 -94 35
-117 6 -24 15 -43 21 -43 11 0 35 -59 31 -74 -5 -17 10 -66 20 -66 11 0 8 77
-11 365 -5 66 -5 152 0 190 4 39 13 113 20 165 6 52 14 195 18 317 3 122 9
224 13 228 7 7 38 -92 38 -124 0 -12 -6 -21 -12 -21 -10 0 -10 -2 -1 -8 20
-13 24 -56 9 -112 -14 -54 -14 -56 9 -80 23 -24 24 -29 19 -145 -3 -66 -6
-370 -7 -677 -1 -306 -5 -560 -9 -564 -5 -4 -8 1 -8 12 0 12 -8 5 -22 -21 -17
-31 -21 -54 -20 -105 8 -228 5 -484 -6 -488 -15 -5 -16 -42 0 -42 13 0 4 -210
-12 -275 -6 -22 -10 -85 -9 -140 2 -153 2 -152 -9 -290 -8 -90 -8 -142 -1
-170 12 -42 5 -145 -13 -208 -9 -29 -8 -50 1 -87 9 -34 9 -54 2 -68 -13 -25
-15 -85 -4 -137 7 -31 5 -47 -8 -70 -16 -27 -16 -36 -3 -95 15 -69 8 -231 -18
-420 -6 -47 -12 -188 -14 -315 -10 -666 -19 -889 -39 -938 -9 -20 -30 -21
-198 -6 -67 6 -131 16 -142 22 -11 6 -65 12 -120 13 -55 0 -136 8 -180 17 -84
17 -279 46 -480 72 -66 9 -133 17 -150 19 -45 6 -326 -23 -355 -36 -59 -28
-96 -34 -165 -26 -38 5 -75 15 -80 22 -6 8 -12 47 -14 87 -3 84 -14 114 -39
103 -39 -17 -93 -16 -113 2 -11 10 -18 23 -15 30 6 16 -25 44 -50 44 -10 0
-32 11 -48 23 l-29 23 13 105 c14 119 14 167 0 184 -13 15 -4 40 29 84 14 19
21 32 14 28 -12 -8 -18 7 -25 58 -4 27 -19 36 -36 22 -11 -9 -20 -5 -44 22
-31 35 -71 51 -126 51 -22 0 -41 8 -57 24 -23 23 -109 49 -157 48 -10 -1 -18
3 -18 9 0 5 -9 9 -21 9 -20 0 -108 46 -120 63 -3 5 -8 8 -10 8 -12 -3 -69 25
-69 34 0 5 -22 22 -49 38 -40 22 -61 27 -118 27 -82 0 -108 -16 -118 -73 -14
-73 -74 -114 -140 -95 -16 4 -59 8 -95 8 -56 0 -73 -5 -113 -30 -25 -16 -61
-51 -79 -78 -30 -46 -75 -82 -101 -82 -7 0 -18 9 -25 20 -7 11 -19 20 -27 20
-8 0 -15 4 -15 10 0 5 -16 -1 -36 -15 -29 -20 -40 -22 -62 -14 -15 5 -32 15
-37 22 -14 17 -86 71 -112 85 -37 20 -90 11 -198 -33 -65 -27 -68 -26 -120 21
-56 51 -87 66 -112 57 -30 -11 -83 -55 -83 -68 0 -13 -42 -35 -68 -35 -15 0
-32 -12 -89 -60 -7 -6 -24 -15 -38 -20 -14 -5 -25 -14 -25 -19 0 -5 -30 -19
-67 -31 -87 -29 -116 -46 -109 -68 4 -11 -3 -21 -19 -29 -23 -10 -25 -9 -21
10 2 12 1 16 -1 9 -4 -11 -23 -13 -86 -8 -104 7 -157 16 -157 27 0 15 -15 10
-38 -12 -35 -32 -64 -22 -82 28 -13 40 -16 42 -47 39 -21 -3 -33 0 -34 7 0 8
-2 8 -6 0 -2 -7 -20 -13 -40 -13 -24 0 -41 -7 -54 -22 -26 -32 -25 -58 4 -55
21 2 22 -2 23 -63 1 -64 -15 -154 -40 -220 -7 -19 -11 -51 -10 -70 5 -62 8
-509 5 -720 -2 -136 0 -205 7 -208 6 -2 2 -18 -10 -39 -31 -52 -111 -81 -137
-49 -8 10 -9 80 -1 267 5 140 10 337 11 439 1 175 7 215 33 232 21 14 -25 48
-66 48 -32 0 -40 -4 -48 -25 -5 -14 -12 -244 -16 -517 -3 -271 -10 -502 -14
-514 -6 -14 -23 -27 -47 -34 -21 -6 -47 -15 -58 -19 -132 -52 -165 -57 -195
-33 l-23 19 12 204 c13 218 18 1771 7 1983 -3 66 -4 127 0 138 6 20 35 24 65
8 10 -6 19 -7 19 -2 0 5 9 19 20 32 19 22 22 22 48 9 15 -8 32 -21 39 -30 7
-9 35 -40 64 -69 l51 -52 -5 -72 c-6 -68 -12 -104 -37 -224 -8 -41 -8 -57 1
-68 18 -22 31 -17 64 21 17 19 36 35 43 35 7 0 36 -25 65 -56 46 -49 55 -55
79 -49 15 4 27 10 26 14 -1 3 2 14 7 24 4 10 2 23 -4 31 -6 7 -14 42 -17 77
-4 41 -14 75 -27 94 -20 28 -22 46 -25 228 -5 241 4 387 24 387 9 0 16 18 20
52 5 34 15 59 29 72 12 12 24 29 28 39 8 22 23 22 30 -2 2 -10 17 -21 33 -24
25 -5 35 0 73 41 26 28 46 42 48 35 3 -7 11 -13 19 -13 17 0 17 -2 -1 -47 -8
-19 -15 -53 -15 -74 0 -32 -4 -39 -19 -39 -34 0 -34 -19 1 -76 51 -85 79 -98
215 -99 62 0 113 3 113 8 0 4 4 6 9 2 14 -8 40 34 35 59 -2 14 4 24 19 32 37
17 65 -2 72 -47 4 -24 16 -46 31 -58 13 -10 24 -24 24 -29 0 -6 9 -14 20 -17
24 -8 60 -44 60 -59 0 -14 -47 -36 -76 -36 -12 0 -27 -7 -34 -15 -7 -8 -30
-18 -51 -21 -39 -7 -58 -27 -36 -41 7 -4 72 -7 145 -7 125 0 133 1 148 22 8
12 21 22 28 22 8 0 16 7 20 15 3 8 12 15 19 15 8 0 20 6 26 14 6 8 32 19 56
25 26 7 49 19 55 31 6 11 15 18 20 15 9 -5 67 29 81 47 3 5 32 13 65 20 74 14
111 39 123 83 10 37 45 88 54 79 2 -3 14 15 26 39 16 32 21 62 21 118 0 41 4
89 9 107 8 25 5 46 -9 88 -32 92 -57 124 -119 152 -31 13 -85 38 -121 54 -61
28 -96 37 -220 59 -30 5 -138 9 -240 9 -163 0 -346 17 -298 28 10 2 21 14 24
28 3 13 10 24 14 24 5 0 15 6 22 13 7 6 29 21 47 31 53 30 121 89 121 106 0 5
4 10 9 10 5 0 22 11 38 24 25 21 84 46 123 52 8 1 46 7 84 13 78 13 135 37
143 60 4 9 12 23 19 31 7 8 14 26 16 40 1 13 13 30 26 36 22 11 23 12 3 17
-12 3 -21 12 -21 21 0 15 17 21 47 17 6 -1 17 15 23 34 7 20 22 41 33 46 12 6
32 26 45 45 12 19 38 42 57 51 19 9 35 20 35 24 0 5 10 18 22 29 19 18 21 24
10 40 -17 27 2 61 65 121 86 81 116 99 161 97 23 -1 42 -4 42 -7 0 -9 58 -38
113 -56 80 -26 107 -43 107 -69 0 -17 7 -26 25 -30 13 -3 29 -15 35 -26 10
-19 11 -19 28 -2 12 11 14 20 8 24 -10 7 -8 8 22 8 4 0 7 -3 8 -7 3 -24 18
-43 31 -39 10 4 19 -4 26 -24 6 -16 14 -30 18 -30 4 0 10 -11 13 -24 6 -24 46
-47 82 -47 10 0 45 3 78 7 49 6 60 4 68 -9 5 -10 15 -17 22 -17 8 0 26 -16 40
-35 15 -19 33 -35 41 -35 7 0 27 -11 43 -25 17 -14 33 -25 37 -25 4 0 16 -11
26 -24 11 -14 35 -34 54 -46 19 -12 35 -25 35 -30 0 -12 57 -70 69 -70 6 0 13
-11 17 -25 3 -14 10 -25 15 -25 5 0 9 -7 9 -15 0 -8 7 -15 15 -15 8 0 15 -4
15 -10 0 -5 -4 -10 -10 -10 -5 0 -24 -16 -42 -35 -38 -40 -113 -72 -205 -86
-34 -5 -88 -17 -120 -28 -32 -10 -85 -24 -118 -31 -113 -23 -271 -107 -308
-164 -10 -14 -26 -26 -37 -26 -11 0 -20 -7 -20 -15 0 -8 5 -15 10 -15 23 0 8
-32 -24 -51 -61 -35 -79 -84 -56 -145 8 -19 7 -48 -1 -100 -11 -63 -10 -80 5
-136 40 -141 100 -277 134 -303 7 -6 18 -22 25 -35 7 -14 19 -25 27 -25 8 0
33 -5 54 -12 50 -17 56 -9 49 68 -4 44 -2 61 10 73 18 18 37 21 37 6 0 -5 8
-10 19 -10 10 0 29 -8 42 -18 41 -32 195 -46 412 -38 106 4 196 12 201 17 6 5
18 9 27 9 9 0 21 6 27 13 6 7 42 20 79 27 37 8 75 22 84 31 9 9 25 22 35 28
17 9 18 10 2 11 -22 0 -23 7 -3 26 8 9 15 19 15 24 0 5 -7 15 -15 24 -18 17
-19 26 -4 26 6 0 38 11 72 24 34 13 74 27 88 30 14 3 31 17 37 31 7 15 8 24 3
21 -5 -3 -14 21 -20 54 -8 40 -17 60 -27 60 -7 0 -14 6 -14 13 0 6 -10 42 -22
80 -18 55 -25 67 -43 67 -12 0 -34 14 -50 30 -16 17 -31 26 -34 22 -8 -12 -82
-29 -103 -24 -10 2 -18 13 -18 24 0 15 -4 18 -17 13 -10 -3 -74 -9 -143 -12
-69 -2 -145 -11 -169 -19 -24 -8 -71 -15 -105 -15 -33 -1 -73 -7 -88 -15 -38
-20 -82 -17 -102 5 -16 18 -16 20 7 45 18 19 41 29 82 36 32 5 66 17 76 26 12
10 49 19 111 24 51 5 117 13 147 19 62 13 117 6 129 -15 4 -8 19 -16 33 -19
13 -2 30 -14 38 -25 13 -20 41 -28 41 -12 0 5 18 15 40 22 22 7 40 17 40 22 0
18 102 0 121 -21 11 -12 31 -24 44 -27 13 -3 27 -15 30 -25 6 -17 23 -24 47
-20 4 0 10 -11 13 -27 3 -15 13 -41 22 -59 11 -23 14 -53 12 -112 -4 -72 -2
-81 13 -81 38 0 15 -20 -24 -22 l-43 -1 43 -4 c37 -4 42 -7 42 -29 0 -13 4
-24 8 -24 5 0 14 -11 20 -25 7 -14 23 -30 37 -37 30 -13 31 -18 45 -133 13
-109 33 -210 59 -290 17 -52 22 -60 43 -58 121 12 146 0 133 -64 -5 -21 -7
-48 -6 -60 2 -15 -5 -24 -21 -29 -13 -4 -29 -15 -36 -25 -7 -11 -19 -19 -25
-19 -7 0 -27 -23 -44 -51 -34 -53 -42 -104 -27 -178 5 -25 9 -29 20 -20 8 6
14 20 14 30 0 11 6 19 13 19 7 0 30 34 52 77 59 112 59 113 67 113 4 0 10 -4
13 -10 9 -15 22 -12 44 11 15 16 17 27 11 47 -5 15 -11 75 -14 135 -5 90 -10
113 -30 146 -27 42 -56 173 -56 251 0 71 25 179 54 230 29 52 76 85 107 75 15
-5 19 -4 14 5 -4 7 1 13 14 17 15 4 20 11 16 23 -7 22 24 36 41 18 14 -15 40
-113 50 -189 9 -68 30 -113 51 -105 8 3 32 9 54 12 31 5 49 18 91 65 32 35 64
61 81 65 16 3 31 12 34 20 3 8 10 14 17 14 6 0 16 12 23 26 15 33 -1 64 -29
56 -10 -2 -28 4 -39 14 -12 11 -23 18 -25 16 -2 -2 -20 0 -39 4 -38 7 -37 4
-36 102 0 38 -4 52 -14 52 -7 0 -17 10 -21 23 -4 12 -11 25 -16 28 -5 3 -5 24
1 50 6 24 9 77 7 118 l-2 74 39 38 c30 28 52 40 86 45 45 7 91 40 91 67 0 8 9
22 20 32 18 16 21 30 19 85 -2 55 2 74 25 114 20 35 30 73 37 135 5 47 12 93
15 102 4 15 -7 17 -86 17 -68 1 -94 5 -106 16 -8 9 -19 16 -23 16 -4 0 -15 15
-24 34 -13 27 -14 42 -5 73 5 21 16 45 23 53 7 8 25 37 39 63 24 46 24 50 10
90 -8 23 -17 69 -21 102 -7 71 -16 85 -54 85 -23 0 -34 9 -56 43 -22 35 -28
58 -33 132 -7 100 -18 128 -58 149 -15 8 -49 34 -75 59 l-49 45 2 68 c1 38 -1
97 -5 132 -8 62 -9 63 -33 57 -36 -9 -151 50 -163 84 -11 27 1 41 37 41 30 0
48 25 41 59 -8 39 -63 118 -88 126 -29 10 -36 35 -43 180 -4 72 -10 138 -13
148 -4 17 -6 17 -23 2 -16 -15 -17 -21 -5 -73 23 -96 -2 -342 -34 -342 -35 0
-60 23 -87 82 -26 55 -29 74 -28 153 0 54 7 113 18 147 14 49 15 68 6 125 -21
132 -22 144 -9 176 7 18 25 51 41 74 34 50 34 65 5 123 -23 46 -53 63 -68 38
-29 -47 -67 108 -49 202 8 44 42 122 60 140 3 3 12 19 22 35 19 35 70 64 114
65 29 0 32 3 37 42 4 30 13 48 31 61 14 10 26 25 26 32 0 8 10 17 23 20 12 4
33 17 47 29 14 11 36 27 49 34 21 12 26 11 45 -7 24 -24 23 32 11 -611 -8
-455 -10 -594 -8 -815 0 -93 0 -207 -1 -252 0 -53 3 -86 11 -94 7 -7 16 -10
19 -6 4 3 9 88 11 189 4 142 9 192 22 223 15 34 16 52 8 115 -15 114 -15 262
1 268 17 5 15 94 -3 139 -20 46 -19 111 1 159 21 50 24 115 24 496 l0 318 28
17 c15 10 29 21 32 25 6 7 48 25 93 39 l29 8 -6 -62 c-3 -34 -8 -89 -11 -122
-5 -52 -1 -76 30 -170 20 -61 42 -117 50 -125 7 -8 18 -40 25 -70 7 -30 18
-66 25 -80 7 -14 15 -63 19 -110 4 -55 13 -93 24 -108 33 -46 52 -87 52 -114
0 -15 6 -33 13 -40 7 -7 19 -33 26 -58 8 -25 24 -68 37 -95 29 -68 51 -155 64
-262 6 -48 19 -115 30 -148 10 -33 24 -89 31 -125 7 -36 25 -85 40 -110 15
-25 31 -61 37 -80 37 -125 96 -307 102 -315 4 -5 10 -27 14 -48 4 -20 18 -59
31 -86 14 -27 25 -60 25 -72 0 -13 9 -44 20 -68 12 -25 20 -65 20 -95 0 -45 5
-58 34 -92 18 -22 35 -48 37 -58 3 -16 13 -20 55 -20 35 -1 58 -7 71 -19 34
-30 74 -17 86 29 5 18 5 17 12 -3 4 -13 11 -20 16 -17 5 3 18 2 29 -1 24 -8
27 -50 8 -119 l-12 -44 -15 32 c-11 21 -24 32 -41 33 l-25 2 25 -8 c15 -6 18
-9 9 -10 -36 -2 -69 -108 -39 -126 6 -3 10 -24 10 -46 0 -21 -4 -39 -10 -39
-5 0 -10 -18 -10 -40 0 -28 -4 -40 -14 -40 -22 0 -27 -30 -16 -90 6 -30 7 -69
4 -87 -6 -31 -4 -33 21 -33 23 0 26 4 25 28 -4 53 0 72 20 92 16 16 18 24 8
51 -7 20 -7 33 -1 38 6 3 13 28 17 55 6 51 19 68 46 63 12 -2 15 -23 15 -114
0 -61 3 -115 8 -119 4 -4 7 -16 7 -26 0 -11 7 -18 19 -18 18 0 91 -59 91 -74
0 -3 -8 -6 -19 -6 -14 0 -21 -10 -26 -37 -4 -21 -11 -40 -16 -43 -11 -7 -14
-85 -5 -127 6 -28 12 -33 36 -33 36 0 40 14 40 172 0 80 6 152 16 195 9 39 15
107 15 162 -1 54 5 119 14 155 12 48 13 72 5 111 -30 143 -33 180 -19 210 8
16 23 32 34 35 11 3 30 14 43 25 12 11 28 20 35 20 7 0 14 22 17 60 5 52 7 56
11 25 3 -19 7 16 7 78 1 69 -2 112 -8 112 -5 0 -10 7 -10 15 0 18 -20 20 -21
3 0 -7 -3 -58 -5 -113 -8 -155 -8 -160 -19 -167 -15 -11 -35 -10 -35 2 0 6
-13 23 -28 40 -20 21 -32 48 -41 97 -8 37 -22 85 -32 105 -11 21 -22 66 -25
100 -4 35 -15 77 -25 93 -10 17 -23 53 -29 80 -6 27 -20 57 -30 67 -11 10 -21
38 -25 65 -3 27 -15 73 -26 104 -10 31 -19 69 -19 85 0 39 -19 106 -29 100
-11 -7 -31 109 -31 176 0 36 -5 60 -15 68 -30 25 -63 97 -70 155 -4 33 -16 89
-27 125 -10 36 -20 73 -23 83 -10 41 -17 64 -35 102 -27 59 -60 162 -71 225
-5 30 -18 74 -30 97 -11 24 -23 60 -26 80 -3 21 -13 56 -24 78 -10 22 -23 62
-30 90 -7 27 -20 58 -30 68 -9 10 -20 44 -24 74 -4 31 -13 62 -20 70 -8 7 -19
39 -26 70 -7 32 -20 76 -30 98 -10 22 -22 60 -26 85 -5 25 -13 45 -18 45 -5 0
-19 -14 -30 -32 -11 -18 -26 -32 -32 -33 -7 0 -13 -6 -13 -14 0 -22 -33 -29
-47 -11 -6 10 -16 14 -22 10 -6 -3 -20 -8 -31 -10 -12 -2 -35 -11 -52 -20 -17
-8 -37 -15 -45 -15 -8 0 -12 -4 -9 -9 3 -5 -3 -11 -13 -14 -13 -3 -21 2 -24
15 -8 29 2 47 29 54 13 3 26 15 30 26 9 29 53 76 78 84 11 4 37 20 57 36 21
17 42 26 51 23 11 -5 23 6 39 36 26 47 76 72 104 51z m1553 -127 c12 -25 22
-65 22 -88 0 -24 7 -69 15 -100 8 -32 15 -75 15 -95 1 -20 8 -55 16 -77 28
-77 31 -365 3 -365 -5 0 -9 7 -9 15 0 8 -4 15 -9 15 -9 0 -17 37 -29 137 -6
52 -13 68 -42 98 -29 30 -35 45 -41 98 -13 120 9 407 30 407 4 0 17 -20 29
-45z m440 -111 c-4 -37 -5 -71 -2 -75 3 -5 -2 -9 -10 -9 -13 0 -16 15 -16 90
0 50 5 101 13 117 l12 27 6 -42 c3 -23 2 -72 -3 -108z m340 4 c7 -7 12 -34 12
-61 0 -39 -3 -48 -15 -44 -8 4 -18 1 -21 -5 -8 -13 -32 43 -33 78 -1 22 16 44
34 44 6 0 16 -5 23 -12z m-4651 -70 c-3 -8 -6 -5 -6 6 -1 11 2 17 5 13 3 -3 4
-12 1 -19z m1386 -66 c-3 -39 -10 -72 -14 -72 -10 0 -12 83 -3 129 12 57 23
18 17 -57z m-2266 26 c-3 -8 -6 -5 -6 6 -1 11 2 17 5 13 3 -3 4 -12 1 -19z
m885 -427 c-3 -250 -5 -291 -17 -275 -25 37 -37 102 -23 126 10 17 13 85 14
253 0 127 4 257 10 290 l9 60 5 -80 c3 -44 4 -212 2 -374z m-886 347 c-12 -40
-17 -146 -7 -123 9 18 10 18 10 -7 1 -15 -4 -30 -10 -33 -7 -5 -10 -55 -9
-144 2 -128 -11 -325 -22 -337 -10 -10 -20 298 -14 438 9 207 13 228 38 228
16 0 19 -4 14 -22z m5511 -44 l2 -39 -14 30 c-18 38 -19 58 -2 53 6 -3 13 -22
14 -44z m-6959 -81 c2 -8 -5 -13 -17 -13 -12 0 -21 6 -21 16 0 18 31 15 38 -3z
m3714 -54 l-9 -24 -7 23 c-8 26 2 48 15 35 6 -6 6 -19 1 -34z m3562 -21 c11
-16 16 -49 17 -113 1 -78 14 -179 18 -134 1 12 8 15 25 12 28 -6 41 -51 30
-108 -5 -27 -12 -37 -33 -41 -49 -12 -53 -22 -47 -103 9 -99 -8 -304 -26 -334
-7 -12 -13 -33 -11 -47 8 -85 10 -330 3 -355 -5 -16 -14 -78 -19 -137 -12
-121 -23 -148 -62 -148 -22 0 -28 6 -33 33 -3 17 -1 59 4 92 5 33 10 126 10
207 0 103 5 165 16 210 15 56 15 78 4 189 -12 121 -12 221 5 574 8 158 12 181
37 205 28 26 43 25 62 -2z m-7254 -60 c0 -10 -6 -18 -13 -18 -17 0 -70 -136
-62 -160 4 -12 0 -20 -12 -23 -17 -4 -17 -4 1 -12 12 -5 21 -3 26 6 11 16 16
12 25 -21 4 -18 -1 -36 -20 -64 -14 -21 -24 -45 -21 -52 3 -8 -1 -14 -9 -14
-25 0 -29 53 -26 313 1 53 17 66 79 65 24 -1 32 -6 32 -20z m6476 -94 c10 -54
-1 -78 -41 -93 -55 -20 -68 -4 -63 80 2 37 9 74 17 83 12 14 16 13 47 -10 22
-17 36 -38 40 -60z m-3146 -124 c0 -11 -4 -20 -10 -20 -5 0 -10 6 -10 14 0 8
-8 17 -17 19 -11 3 -7 5 10 6 21 1 27 -4 27 -19z m3567 -27 c-3 -10 -5 -2 -5
17 0 19 2 27 5 18 2 -10 2 -26 0 -35z m20 25 c-3 -8 -6 -5 -6 6 -1 11 2 17 5
13 3 -3 4 -12 1 -19z m-460 -147 c3 -13 -2 -49 -11 -80 -33 -109 -38 -136 -32
-183 4 -43 3 -48 -14 -48 -18 0 -19 6 -14 68 3 41 1 60 -4 47 -13 -30 -24 188
-11 222 20 53 31 58 56 27 13 -16 26 -40 30 -53z m-6506 -51 c4 -19 3 -43 -3
-53 -5 -11 -7 -40 -4 -66 15 -114 18 -203 7 -214 -8 -8 -14 -9 -19 -1 -4 6
-15 13 -25 17 -16 6 -18 21 -16 164 1 87 6 166 11 176 15 28 41 16 49 -23z
m1979 15 c0 -2 -9 -9 -20 -15 -18 -9 -20 -8 -20 15 0 23 2 24 20 15 11 -6 20
-13 20 -15z m1376 -30 c4 -22 2 -41 -6 -50 -18 -21 -30 -9 -30 30 0 70 24 83
36 20z m-1900 -168 c-3 -120 -10 -157 -27 -157 -10 0 -12 255 -2 315 l6 39 13
-37 c9 -26 12 -78 10 -160z m4197 106 c57 -44 82 -111 80 -206 -2 -79 -10 -96
-40 -97 -25 0 -48 52 -45 105 1 27 0 68 -3 90 -6 40 -6 40 -50 40 -37 0 -45
-3 -45 -17 0 -10 -4 -18 -10 -18 -13 0 0 31 22 53 10 10 16 22 13 27 -8 13 13
50 29 50 7 0 29 -12 49 -27z m-2472 5 c0 -7 4 -33 7 -58 10 -68 8 -283 -3
-301 -9 -15 -13 -14 -35 11 -14 15 -25 33 -25 41 0 8 -11 16 -25 18 l-25 4 25
8 c24 7 24 7 3 8 -18 1 -23 7 -23 27 0 17 -4 23 -12 18 -8 -5 -9 -2 -5 10 4
10 10 36 13 58 4 22 12 42 19 44 7 3 15 17 18 32 3 15 15 38 26 51 12 13 21
28 21 33 0 13 20 9 21 -4z m-241 -48 c0 -11 -7 -20 -15 -20 -8 0 -15 9 -15 20
0 11 7 20 15 20 8 0 15 -9 15 -20z m400 -92 c0 -23 -3 -29 -11 -21 -6 6 -8 20
-4 32 9 30 15 26 15 -11z m-3849 -215 c-8 -13 -10 12 -9 92 l1 110 9 -92 c6
-62 6 -98 -1 -110z m6303 15 c10 -39 7 -165 -4 -148 -5 8 -10 24 -10 35 0 12
-9 38 -20 60 -11 22 -17 47 -14 57 8 26 40 22 48 -4z m-5784 -140 c7 -73 17
-138 22 -145 27 -33 -28 -122 -77 -126 -26 -2 -30 2 -33 28 -2 16 1 46 7 66 6
21 12 88 12 151 1 141 4 158 34 158 22 0 23 -5 35 -132z m3330 93 c0 -11 -4
-23 -10 -26 -6 -4 -10 5 -10 19 0 14 5 26 10 26 6 0 10 -9 10 -19z m-4908
-458 c26 -29 81 -77 120 -106 52 -38 56 -64 23 -150 -53 -141 -59 -147 -178
-147 -85 0 -79 -3 -152 82 -16 19 -38 39 -49 45 -12 7 -20 25 -23 55 -10 85
19 132 123 203 56 38 110 45 136 18z m-793 -1064 c38 -16 58 -33 81 -67 34
-52 36 -65 15 -115 -8 -20 -15 -48 -15 -62 0 -30 -26 -85 -49 -102 -9 -6 -38
-15 -66 -18 -78 -10 -136 15 -206 87 -57 59 -59 63 -59 114 0 70 11 94 56 129
71 55 162 67 243 34z m9240 -236 c0 -24 -3 -43 -9 -43 -6 0 -10 30 -9 73 1 54
3 65 9 42 4 -16 8 -49 9 -72z m-568 -83 c3 -201 1 -233 -11 -225 -7 4 -10 64
-10 163 2 142 7 228 15 220 2 -2 4 -73 6 -158z m208 -215 c1 -49 -2 -107 -6
-129 l-6 -38 -18 37 c-17 34 -17 43 -4 133 8 54 15 104 16 112 0 10 3 8 9 -5
5 -11 9 -60 9 -110z m-8 -344 c-1 -112 -14 -178 -30 -152 -5 7 -12 11 -16 9
-11 -4 -17 85 -10 139 3 22 15 51 25 64 11 12 20 31 20 42 0 11 3 17 6 14 4
-3 6 -56 5 -116z m-2 -296 c0 -5 -4 -3 -9 5 -5 8 -9 22 -9 30 0 16 17 -16 18
-35z m-338 -132 c7 -18 7 -34 1 -43 -13 -22 -80 -24 -124 -4 -36 16 -50 34
-28 34 6 0 10 6 10 14 0 16 23 23 88 25 38 1 44 -2 53 -26z m-8876 -18 c0 -23
-4 -30 -20 -30 -15 0 -20 7 -20 25 0 34 4 42 23 38 11 -2 17 -13 17 -33z
m5665 20 l35 -13 -47 -1 c-38 -1 -46 2 -42 14 7 18 8 18 54 0z m3510 -167 c0
-5 -4 -8 -10 -8 -5 0 -10 10 -10 23 0 18 2 19 10 7 5 -8 10 -18 10 -22z m-665
-255 c-3 -137 -8 -264 -12 -283 l-6 -35 -12 35 c-8 25 -9 92 -4 230 9 223 16
300 30 300 5 0 7 -97 4 -247z m664 77 c0 -41 -4 -93 -8 -115 -6 -28 -9 8 -9
115 0 107 3 143 9 115 4 -22 8 -74 8 -115z m-5709 114 c74 -7 144 -14 156 -14
12 0 25 -10 32 -24 10 -22 8 -25 -20 -35 -17 -6 -43 -11 -57 -11 -14 0 -48 -7
-75 -15 -27 -8 -74 -15 -105 -15 -92 0 -274 -21 -306 -35 -16 -8 -48 -19 -70
-26 -22 -6 -48 -16 -58 -21 -14 -7 -24 -3 -43 17 -40 43 -32 57 26 49 54 -7
63 1 30 31 -26 24 -25 35 3 35 26 0 70 27 62 39 -9 15 69 41 111 37 22 -2 65
-1 95 4 29 4 61 5 69 3 8 -3 76 -11 150 -19z m-2550 -188 c0 -14 -5 -28 -11
-31 -15 -10 -18 -4 -12 28 7 34 23 36 23 3z m2385 -6 c-4 -6 13 -10 44 -10 28
0 51 -4 51 -10 0 -5 -15 -10 -32 -10 -29 -1 -93 -20 -150 -44 -13 -6 -19 -2
-24 19 -9 35 6 48 64 56 26 3 48 7 50 8 2 0 0 -3 -3 -9z m1765 -91 c0 -11 -4
-17 -10 -14 -5 3 -10 13 -10 21 0 8 5 14 10 14 6 0 10 -9 10 -21z m511 -50
c36 -11 54 -36 40 -56 -22 -33 -162 -58 -321 -58 -80 0 -230 11 -236 18 -2 2
20 7 50 10 29 3 69 13 87 23 19 9 52 18 74 20 91 6 167 21 176 35 5 8 9 11 9
7 0 -4 10 -3 23 2 30 12 53 12 98 -1z m3126 -71 c-2 -13 -4 -3 -4 22 0 25 2
35 4 23 2 -13 2 -33 0 -45z m780 -10 c-3 -8 -6 -5 -6 6 -1 11 2 17 5 13 3 -3
4 -12 1 -19z m-313 -516 c-6 -382 -8 -414 -25 -434 -21 -24 -22 -39 -19 -258
1 -87 7 -168 16 -202 8 -31 13 -77 13 -101 -2 -53 6 -70 32 -62 25 8 27 1 39
-125 5 -58 13 -127 16 -153 9 -62 -7 -93 -50 -100 -17 -3 -53 -13 -79 -23 -42
-14 -50 -15 -59 -3 -5 8 -7 66 -3 144 10 202 12 226 24 290 22 126 27 225 29
668 2 251 7 480 13 509 5 29 14 106 19 171 5 66 12 129 16 140 19 56 24 -75
18 -461z m338 425 c20 -6 21 -10 15 -115 -4 -66 -2 -123 4 -143 39 -127 42
-161 40 -459 -3 -603 -21 -1287 -36 -1322 -11 -28 -59 -22 -91 11 -57 58 -66
70 -60 80 4 5 3 12 -1 14 -8 5 -3 84 17 297 5 58 12 177 15 265 3 88 10 264
16 390 6 127 14 317 18 423 5 120 12 197 19 201 7 4 8 37 1 111 -5 58 -7 128
-4 155 10 87 19 131 22 114 2 -10 14 -19 25 -22z m-802 -54 c0 -41 -3 -54 -10
-43 -13 20 -13 100 0 100 6 0 10 -26 10 -57z m-7519 -133 c14 -50 3 -256 -18
-350 -7 -31 -41 147 -51 274 -7 83 -6 89 13 97 31 13 48 6 56 -21z m-273 -164
c4 -34 -13 -78 -39 -102 -18 -16 -19 -15 -29 10 -11 31 -14 109 -3 120 4 4 21
6 38 4 25 -2 31 -8 33 -32z m7557 -478 c4 -32 2 -79 -4 -110 -7 -31 -14 -204
-17 -404 -2 -192 -6 -366 -8 -387 -4 -48 -29 -76 -54 -61 -20 14 -19 86 4 175
11 44 12 69 3 115 -13 69 -4 197 17 257 11 30 16 101 19 255 2 117 7 223 11
235 7 22 7 22 14 1 5 -11 11 -46 15 -76z m-3295 37 c19 -12 10 -33 -26 -65
-30 -26 -42 -31 -68 -26 -64 13 -72 54 -17 82 13 7 27 16 33 22 9 9 53 2 78
-13z m-4001 -68 c1 -16 -3 -26 -9 -22 -5 3 -10 25 -9 48 0 33 2 38 9 22 5 -11
9 -33 9 -48z m2766 -69 c37 -35 59 -65 66 -90 12 -45 24 -53 109 -68 36 -6 70
-15 75 -19 6 -4 32 -16 58 -25 42 -16 68 -17 208 -11 121 6 164 11 175 22 8 9
54 21 105 28 50 7 94 17 98 22 12 19 47 32 108 39 68 7 89 -3 89 -43 0 -32
-67 -46 -182 -38 -98 8 -134 2 -134 -20 0 -15 -58 -35 -104 -35 -17 0 -40 -9
-52 -21 -33 -31 -83 -38 -266 -39 -115 0 -213 -7 -314 -21 -165 -23 -364 -24
-372 -1 -2 7 -10 19 -18 26 -8 8 -14 34 -14 60 0 38 3 46 18 46 15 0 19 8 20
37 1 20 8 41 16 45 7 4 17 19 20 32 3 14 14 27 24 30 10 3 26 20 36 37 23 38
66 58 129 59 44 0 52 -4 102 -52z m1805 -75 c0 -7 -4 -13 -10 -13 -5 0 -10 12
-10 28 0 21 2 24 10 12 5 -8 10 -21 10 -27z m-470 8 c0 -6 -5 -13 -11 -16 -6
-4 -8 -13 -5 -21 6 -14 -48 -34 -95 -34 -15 0 -29 -7 -33 -15 -8 -21 -32 -19
-56 5 l-20 20 22 10 c13 5 49 14 81 20 31 6 57 15 57 20 0 8 21 16 48 19 6 0
12 -3 12 -8z m550 -16 c0 -8 -4 -15 -10 -15 -5 0 -10 7 -10 15 0 8 5 15 10 15
6 0 10 -7 10 -15z m-36 -36 c4 6 13 11 20 11 16 0 33 -73 18 -78 -5 -1 -7 -12
-5 -24 3 -11 1 -23 -6 -27 -6 -4 -14 -18 -16 -32 -3 -13 -9 -25 -15 -27 -5 -2
-10 -12 -10 -23 0 -20 -15 -52 -39 -81 -9 -11 -14 -47 -15 -103 -1 -61 -5 -85
-13 -85 -7 0 -13 -9 -13 -20 0 -11 -7 -20 -14 -20 -10 0 -21 -22 -32 -60 -9
-33 -21 -60 -25 -60 -5 0 -9 -9 -9 -21 0 -11 4 -17 10 -14 5 3 12 -6 16 -21 6
-22 2 -32 -19 -50 -14 -12 -32 -38 -40 -57 -10 -22 -24 -37 -39 -40 -16 -4
-30 -20 -41 -44 -8 -21 -22 -49 -31 -63 -8 -14 -21 -40 -28 -57 -7 -18 -19
-33 -25 -33 -7 0 -13 -7 -13 -15 0 -7 -7 -18 -15 -22 -8 -5 -16 -21 -17 -35
-1 -15 -5 -25 -8 -23 -3 2 -24 -12 -45 -32 -22 -20 -54 -42 -72 -49 -18 -8
-33 -18 -33 -23 0 -4 -30 -23 -67 -41 -38 -17 -85 -42 -105 -53 -20 -12 -60
-35 -90 -51 -29 -15 -60 -34 -69 -42 -8 -8 -28 -14 -42 -14 -15 0 -27 -3 -27
-7 0 -11 -80 -43 -124 -50 -34 -5 -41 -13 -36 -38 1 -5 -2 -7 -6 -2 -4 4 -17
1 -28 -6 -32 -21 -93 -29 -117 -17 -16 9 -24 8 -40 -6 -17 -15 -35 -16 -157
-11 -120 4 -146 8 -193 30 -30 14 -64 28 -76 32 -12 3 -35 20 -50 36 -15 17
-52 42 -81 56 -30 15 -66 39 -82 55 -16 15 -31 28 -34 28 -4 0 -19 14 -34 30
-15 17 -43 38 -62 48 -20 10 -41 30 -48 48 -8 16 -27 39 -43 50 -16 10 -41 37
-54 60 -13 22 -43 62 -65 87 -23 25 -42 49 -42 54 -1 4 -7 13 -14 18 -10 8
-23 63 -27 113 0 6 -4 12 -9 12 -5 0 -7 9 -3 19 3 11 -1 25 -9 34 -9 8 -12 23
-9 36 3 11 0 27 -6 35 -6 7 -14 41 -17 75 -6 56 -9 61 -30 61 -18 0 -24 6 -24
21 0 12 -18 43 -40 69 -46 55 -50 83 -19 147 23 47 23 48 67 32 22 -7 33 -19
37 -40 4 -16 19 -37 33 -47 15 -9 29 -20 32 -24 3 -4 28 -4 55 0 56 9 106 -7
261 -84 33 -17 53 -19 116 -12 45 4 47 6 52 45 6 55 40 90 93 97 27 4 82 11
123 17 41 6 107 17 145 25 39 8 104 14 145 14 69 1 161 12 300 38 125 24 217
32 243 23 26 -10 51 -50 62 -101 4 -16 10 -32 14 -35 24 -14 82 -11 121 6 23
11 61 22 84 25 22 4 53 13 68 20 17 9 44 12 76 8 l49 -5 -5 31 c-4 27 2 37 42
74 25 24 46 48 46 55 0 6 2 11 4 11 2 0 11 3 20 6 11 4 16 1 16 -10 0 -24 80
-11 102 18 54 66 93 104 104 99 7 -2 15 5 19 18 5 15 9 18 15 9 5 -9 9 -9 14
-1z m3100 -140 c25 21 31 -29 18 -143 -7 -56 -12 -120 -12 -143 0 -23 -5 -43
-10 -45 -7 -2 -8 -19 -4 -45 3 -24 10 -40 15 -37 5 3 9 -14 9 -38 0 -24 3 -53
6 -65 4 -16 -1 -26 -19 -38 -25 -16 -27 -15 -56 6 -33 24 -40 46 -17 55 20 8
28 63 27 181 0 56 4 113 9 125 7 17 9 19 9 6 1 -19 16 -24 25 -9 9 14 -19 86
-32 84 -8 -2 -12 12 -12 41 0 54 9 83 21 65 6 -10 10 -10 23 0z m-6047 -179
c6 -16 7 -34 2 -41 -14 -22 -10 -62 6 -86 13 -18 14 -42 10 -123 l-6 -100 24
0 c32 0 43 -14 58 -75 15 -62 61 -154 109 -220 21 -29 42 -73 50 -105 7 -30
19 -67 26 -82 23 -46 16 -80 -23 -113 l-35 -29 -168 -4 c-92 -2 -169 0 -172 4
-5 11 9 688 18 861 5 100 9 125 25 142 16 17 23 19 42 10 13 -6 28 -23 34 -39z
m5773 -208 c-1 -37 0 -74 1 -82 5 -33 -2 -60 -15 -60 -10 0 -12 19 -10 88 2
48 3 97 4 110 0 13 4 20 10 17 6 -3 10 -36 10 -73z m-156 -257 c14 -10 19 -26
18 -52 -2 -49 -30 -73 -86 -73 -62 -1 -151 -50 -214 -118 -32 -34 -51 -64 -48
-74 3 -12 -4 -18 -22 -20 -19 -2 -28 -11 -34 -33 -4 -16 -14 -35 -23 -41 -8
-6 -28 -36 -44 -65 -35 -66 -50 -187 -52 -402 -1 -158 -7 -190 -33 -195 -21
-4 -187 53 -231 80 -16 10 -37 18 -45 18 -22 0 -89 67 -96 95 -3 13 -4 84 -2
157 5 141 8 151 81 308 47 98 203 280 277 321 42 23 62 35 114 68 36 24 47 26
205 29 91 1 173 4 181 6 28 7 35 5 54 -9z m-2820 -1311 c7 -18 0 -34 -15 -34
-5 0 -9 11 -9 25 0 28 15 34 24 9z m-979 -212 c23 -15 55 -71 55 -94 0 -35
-34 -61 -94 -73 -56 -11 -87 -5 -166 33 -25 12 -50 22 -57 22 -7 0 -18 10 -24
23 -7 12 -18 26 -25 30 -8 4 -14 14 -14 22 0 10 24 15 91 21 56 4 86 10 77 15
-8 5 19 9 67 9 44 0 85 -4 90 -8z m394 -843 c44 -15 39 -39 -16 -81 -66 -49
-79 -55 -153 -68 -36 -6 -78 -18 -95 -25 -68 -30 -125 -25 -125 10 0 7 -6 16
-12 18 -18 7 31 46 57 47 11 0 30 6 41 14 11 8 49 20 84 27 36 6 88 25 115 40
57 33 60 33 104 18z"/>
<path d="M5915 11133 c-19 -152 12 -391 39 -305 9 28 11 313 2 340 -14 42 -33
25 -41 -35z"/>
<path d="M5880 10256 c0 -16 24 -39 32 -30 3 3 4 14 1 25 -6 22 -33 26 -33 5z"/>
<path d="M10745 9676 c-8 -42 -3 -162 8 -172 16 -17 22 13 19 99 -4 99 -16
133 -27 73z"/>
<path d="M10751 9244 c0 -11 3 -14 6 -6 3 7 2 16 -1 19 -3 4 -6 -2 -5 -13z"/>
<path d="M7572 10055 c0 -86 3 -132 8 -120 11 24 11 189 0 230 -5 18 -8 -25
-8 -110z"/>
<path d="M7573 9495 c0 -22 2 -30 4 -17 2 12 2 30 0 40 -3 9 -5 -1 -4 -23z"/>
<path d="M8190 8975 c1 -26 2 -28 11 -12 8 14 8 22 0 30 -8 8 -11 3 -11 -18z"/>
<path d="M8782 7733 c-12 -2 -28 -13 -35 -24 -6 -10 -19 -19 -28 -19 -9 0 -34
-12 -55 -27 -21 -14 -58 -30 -81 -34 -72 -14 -129 -45 -152 -84 -19 -34 -20
-41 -10 -142 6 -58 8 -118 6 -133 -3 -15 1 -55 9 -91 8 -35 17 -76 18 -92 9
-67 29 -127 42 -127 8 0 14 -4 14 -10 0 -5 -7 -10 -15 -10 -13 0 -19 -12 -16
-32 0 -4 -6 -5 -14 -2 -15 6 -25 -19 -26 -71 -2 -42 8 -228 12 -240 2 -5 -5
-34 -15 -62 -10 -32 -15 -64 -11 -81 3 -16 1 -50 -5 -76 -7 -33 -7 -52 0 -60
5 -7 40 -18 77 -25 54 -11 77 -11 113 -1 74 20 97 43 111 108 15 73 7 217 -15
257 -19 37 -20 72 -1 105 10 17 14 58 15 133 l0 109 -40 38 c-39 37 -51 72
-30 85 18 11 60 115 60 149 0 20 8 40 20 51 22 20 25 46 9 76 -8 15 -7 35 2
72 7 29 12 62 10 74 -1 12 5 26 16 31 12 7 17 21 16 50 -2 35 1 40 30 53 21 9
32 21 32 34 0 21 -20 27 -63 18z"/>
<path d="M8851 7531 c-8 -14 -7 -22 2 -30 13 -10 54 -8 66 4 7 8 -21 25 -31
19 -4 -3 -8 2 -8 10 0 22 -17 20 -29 -3z"/>
<path d="M8792 7378 c-16 -16 -15 -33 2 -47 21 -18 50 14 36 40 -12 22 -21 24
-38 7z"/>
<path d="M8998 7039 c-6 -38 2 -129 11 -129 11 0 29 94 24 128 -7 41 -29 42
-35 1z"/>
<path d="M9155 6918 c-2 -7 -6 -51 -8 -98 -6 -94 -14 -139 -27 -155 -6 -7 -6
-41 0 -86 17 -127 21 -144 38 -167 48 -63 108 -2 97 99 -5 39 -1 80 15 143 22
93 21 154 -5 211 -8 17 -16 38 -19 48 -6 21 -84 25 -91 5z"/>
<path d="M8967 6264 c-4 -4 -7 -32 -7 -62 0 -48 2 -53 15 -42 9 7 14 19 11 26
-3 7 2 18 10 25 19 15 14 53 -6 57 -9 1 -19 0 -23 -4z"/>
<path d="M8568 5788 c-47 -17 -28 -41 25 -31 18 4 27 12 27 24 0 21 -11 22
-52 7z"/>
<path d="M5900 5775 c0 -8 3 -15 6 -15 3 0 12 7 20 15 14 13 13 15 -5 15 -12
0 -21 -6 -21 -15z"/>
<path d="M5920 5729 c0 -6 7 -17 15 -26 12 -11 19 -12 29 -4 17 14 29 0 20
-23 -9 -24 4 -38 27 -26 23 13 27 63 4 54 -8 -4 -15 -2 -15 3 0 5 -15 14 -33
21 -41 15 -47 15 -47 1z"/>
<path d="M6028 5623 c7 -3 16 -2 19 1 4 3 -2 6 -13 5 -11 0 -14 -3 -6 -6z"/>
<path d="M9058 5574 c-5 -4 -8 -16 -8 -28 0 -14 3 -17 11 -9 6 6 9 19 7 28 -1
9 -6 13 -10 9z"/>
<path d="M7985 5477 c-4 -10 -5 -21 -1 -24 10 -10 18 4 13 24 -4 17 -4 17 -12
0z"/>
<path d="M8901 5187 c-7 -19 -9 -41 -6 -50 3 -10 7 -25 10 -34 5 -13 11 -9 30
20 25 35 34 84 15 72 -6 -3 -13 1 -16 9 -10 25 -22 19 -33 -17z"/>
<path d="M7452 4988 c-8 -31 1 -82 18 -101 13 -15 68 -16 80 -2 13 16 -5 58
-39 89 -12 11 -21 25 -21 33 0 27 -30 12 -38 -19z"/>
<path d="M7762 4912 c-21 -16 -22 -20 -8 -31 24 -20 51 -9 54 22 4 32 -12 35
-46 9z"/>
<path d="M7670 4880 c-10 -6 -15 -30 -15 -82 -1 -40 -7 -90 -14 -111 -15 -45
-9 -67 19 -67 36 0 90 146 61 164 -5 3 -12 26 -15 51 -8 49 -15 58 -36 45z"/>
<path d="M3457 4613 c-11 -11 -8 -131 4 -138 16 -11 22 1 30 62 9 65 -8 102
-34 76z"/>
<path d="M7666 4494 c-3 -9 -2 -23 4 -32 7 -14 9 -10 10 16 0 35 -5 41 -14 16z"/>
<path d="M3421 3664 c0 -11 3 -14 6 -6 3 7 2 16 -1 19 -3 4 -6 -2 -5 -13z"/>
<path d="M5685 4243 c-11 -2 -38 -11 -60 -20 -28 -11 -79 -16 -169 -17 -113
-2 -130 -4 -142 -21 -8 -10 -14 -24 -14 -30 0 -18 39 -55 59 -55 10 0 29 -8
42 -19 49 -38 264 -83 244 -51 -3 6 3 10 13 10 11 0 25 6 32 14 6 8 17 13 25
10 7 -3 24 5 38 18 14 13 38 30 54 37 15 7 35 17 43 22 8 5 27 14 43 20 27 11
31 19 27 49 -3 31 -32 40 -124 39 -50 -1 -100 -3 -111 -6z"/>
<path d="M6807 4204 c-4 -4 -7 -14 -7 -23 0 -11 3 -12 11 -4 6 6 10 16 7 23
-2 6 -7 8 -11 4z"/>
<path d="M5768 2583 c7 -3 16 -2 19 1 4 3 -2 6 -13 5 -11 0 -14 -3 -6 -6z"/>
<path d="M2936 12147 c-4 -68 -4 -130 -2 -138 3 -8 8 -225 11 -484 5 -442 10
-553 28 -582 5 -7 1 -33 -8 -58 -12 -36 -15 -97 -16 -278 -1 -128 2 -245 6
-260 9 -32 49 -77 70 -77 7 0 15 -6 18 -12 3 -10 7 -10 20 1 28 23 22 81 -13
121 -17 19 -33 43 -36 53 -8 24 20 65 49 72 13 4 31 21 40 38 15 29 16 37 2
87 -20 74 -19 90 5 90 11 0 20 7 20 15 0 8 7 15 15 15 15 0 21 24 29 130 3 36
14 92 25 125 30 90 48 274 31 324 -10 30 -10 47 -1 72 14 40 15 149 1 149 -5
0 -10 8 -10 18 0 13 2 14 9 4 5 -9 11 7 15 44 6 49 4 61 -11 74 -16 13 -18 30
-17 140 1 69 5 158 9 197 5 47 4 77 -3 85 -5 7 -9 46 -8 86 l2 72 -137 0 -136
0 -7 -123z m144 73 c0 -16 -4 -30 -10 -30 -5 0 -10 14 -10 30 0 17 5 30 10 30
6 0 10 -13 10 -30z m-1 -332 c1 -27 -3 -48 -8 -48 -5 0 -9 44 -9 98 0 83 1 90
8 47 5 -27 9 -71 9 -97z m0 -80 c0 -7 -4 -22 -9 -33 -7 -17 -9 -15 -9 13 -1
17 4 32 9 32 6 0 10 -6 9 -12z m13 -210 c0 -18 0 -45 -1 -60 -1 -15 2 -35 7
-45 6 -12 3 -29 -9 -53 l-17 -34 -21 34 c-26 43 -26 47 0 61 18 9 20 17 16 47
-3 21 -9 47 -13 60 -5 18 -2 22 15 22 17 0 21 -7 23 -32z m-2 -379 c0 -6 7 -9
15 -5 12 4 15 -7 15 -68 0 -50 -4 -76 -12 -79 -10 -3 -10 -9 0 -26 6 -11 12
-28 12 -36 0 -8 5 -15 10 -15 6 0 10 -9 10 -20 0 -11 -3 -20 -7 -20 -45 1
-102 198 -77 264 7 18 34 22 34 5z m-10 -414 c0 -56 -13 -73 -24 -32 -8 30 -8
72 1 80 16 17 23 3 23 -48z"/>
<path d="M3278 11973 c-1 -164 -2 -444 -3 -623 -1 -179 -5 -383 -9 -454 -9
-146 4 -256 35 -297 l18 -24 28 33 28 33 21 -20 c12 -11 24 -26 27 -33 3 -10
11 -8 33 8 34 25 64 106 48 132 -6 9 -9 51 -8 92 1 41 5 293 10 560 10 687 9
659 25 643 6 -6 17 -9 24 -7 7 3 16 1 19 -5 4 -5 7 -94 7 -198 0 -146 -3 -198
-15 -232 -13 -36 -16 -92 -14 -325 1 -154 -1 -321 -5 -371 -10 -145 -7 -194
12 -227 39 -71 52 -44 59 122 2 69 9 134 15 145 19 34 21 91 26 600 2 138 6
272 9 300 4 27 3 138 -2 247 l-9 198 -188 0 -189 0 -2 -297z m302 141 c0 -21
-4 -33 -10 -29 -5 3 -10 19 -10 36 0 16 5 29 10 29 6 0 10 -16 10 -36z"/>
<path d="M3157 10684 c-10 -11 -9 -94 2 -94 13 0 23 67 13 85 -4 9 -11 12 -15
9z"/>
<path d="M4112 10325 c-19 -42 -15 -55 18 -55 35 0 40 22 12 58 l-18 23 -12
-26z"/>
<path d="M4130 10240 c0 -5 7 -10 15 -10 8 0 15 5 15 10 0 6 -7 10 -15 10 -8
0 -15 -4 -15 -10z"/>
<path d="M3462 10229 c2 -6 8 -10 13 -10 5 0 11 4 13 10 2 6 -4 11 -13 11 -9
0 -15 -5 -13 -11z"/>
<path d="M4080 10175 c0 -16 34 -38 44 -28 3 3 6 15 6 25 0 13 -7 18 -25 18
-15 0 -25 -6 -25 -15z"/>
<path d="M2956 10144 c-6 -26 -20 -665 -19 -844 1 -181 11 -696 14 -705 4 -13
-11 -97 -20 -110 -8 -14 -13 -106 -15 -289 -1 -158 -1 -159 22 -162 12 -2 22
-3 23 -1 7 31 21 313 19 367 -6 111 3 1194 12 1612 2 107 0 130 -13 144 -16
15 -17 14 -23 -12z"/>
<path d="M3150 10120 c0 -5 5 -10 11 -10 5 0 7 5 4 10 -3 6 -8 10 -11 10 -2 0
-4 -4 -4 -10z"/>
<path d="M4100 10070 c0 -24 -5 -40 -12 -40 -6 0 -9 -2 -6 -5 3 -3 13 -3 22 1
18 7 24 84 6 84 -5 0 -10 -18 -10 -40z"/>
<path d="M3150 9974 c0 -14 4 -23 10 -19 6 3 10 15 10 26 0 10 -4 19 -10 19
-5 0 -10 -12 -10 -26z"/>
<path d="M4135 9620 c4 -6 11 -8 16 -5 14 9 11 15 -7 15 -8 0 -12 -5 -9 -10z"/>
<path d="M11693 9520 c0 -30 2 -43 4 -27 2 15 2 39 0 55 -2 15 -4 2 -4 -28z"/>
<path d="M3073 9399 c-15 -15 -18 -89 -3 -89 10 0 24 59 18 85 -2 13 -5 14
-15 4z"/>
<path d="M3391 8604 c0 -11 3 -14 6 -6 3 7 2 16 -1 19 -3 4 -6 -2 -5 -13z"/>
<path d="M2906 6415 c-7 -16 -21 -459 -18 -570 2 -68 2 -277 0 -535 -3 -315 9
-547 26 -530 8 8 10 148 9 468 -1 251 -2 462 -2 467 12 319 3 742 -15 700z"/>
<path d="M3010 5845 c0 -66 16 -74 22 -10 4 50 1 65 -13 65 -5 0 -9 -25 -9
-55z"/>
<path d="M3042 5619 c2 -6 8 -10 13 -10 5 0 11 4 13 10 2 6 -4 11 -13 11 -9 0
-15 -5 -13 -11z"/>
<path d="M3009 5266 c-7 -81 3 -671 11 -651 11 29 12 683 1 689 -5 3 -11 -14
-12 -38z"/>
<path d="M11271 5008 c-1 -61 1 -66 18 -61 13 3 22 17 26 44 7 43 1 61 -19 53
-8 -3 -16 2 -19 13 -3 10 -5 -12 -6 -49z"/>
<path d="M11688 4789 c-9 -32 -27 -389 -37 -749 -4 -146 -10 -271 -14 -277 -9
-15 -39 -657 -31 -677 7 -19 28 -21 42 -3 6 7 10 64 10 132 0 66 5 143 11 170
20 92 32 486 29 960 -2 259 -6 458 -10 444z"/>
<path d="M11272 4650 c0 -63 0 -64 13 -35 17 36 19 55 6 55 -5 0 -12 10 -14
23 -2 12 -5 -7 -5 -43z"/>
<path d="M3009 4469 c0 -52 0 -227 0 -389 1 -162 1 -322 1 -354 0 -33 3 -57 6
-54 8 9 9 876 1 885 -4 3 -7 -36 -8 -88z"/>
<path d="M2900 4333 c0 -48 3 -63 10 -53 13 20 13 107 0 115 -6 4 -10 -19 -10
-62z"/>
<path d="M3013 3485 c0 -22 2 -30 4 -17 2 12 2 30 0 40 -3 9 -5 -1 -4 -23z"/>
<path d="M2861 3484 c0 -11 3 -14 6 -6 3 7 2 16 -1 19 -3 4 -6 -2 -5 -13z"/>
<path d="M5460 895 c0 -8 5 -15 10 -15 6 0 10 7 10 15 0 8 -4 15 -10 15 -5 0
-10 -7 -10 -15z"/>
<path d="M5505 840 c12 -13 22 -17 28 -11 13 13 -1 31 -25 31 -21 0 -21 -1 -3
-20z"/>
</g>
</svg>
